<?xml version="1.0" encoding="UTF-8"?>
<svg id="Layer_2" data-name="Layer 2" xmlns="http://www.w3.org/2000/svg" viewBox="0 0 448.44 468.2">
  <defs>
    <style>
      .cls-1 {
        fill: #58a49d;
      }

      .cls-2 {
        fill: none;
        stroke: #fff;
        stroke-linecap: round;
        stroke-linejoin: round;
        stroke-width: 3px;
      }
    </style>
  </defs>
  <g id="Layer_1-2" data-name="Layer 1">
    <g>
      <polyline class="cls-1" points="3 468.2 392.37 468.2 3 223.62 3 468.2"/>
      <path class="cls-2" d="M2.49,453.05l38.02-67.15c13.48-22.11,26.43-23.87,26.43-23.87h341.68c8.93,0,17.74,2.43,25.22,7.29,20.52,13.35,12.31,30.75,6.21,39.35-2.16,3.04-4.89,5.61-8.05,7.6l-68.84,43.25"/>
      <path class="cls-2" d="M1.5,250.53c15.67,20.46,31.15,41.08,46.84,61.53,13.34,17.38,32.42,12.89,52.28,12.89h278.5c15.85,0,37.87.34,51.86-7.01,7.51-3.94,13.71-7.63,15.07-16,1.65-10.15-3.41-20.47-10.73-27.69-13.3-13.1-34.11-22-50.22-32.15s-32.4-20.4-48.6-30.6c-43.95-27.67-87.89-55.35-131.84-83.02C138.04,86.54,71.41,44.58,4.79,2.63l-1.79-1.13"/>
    </g>
  </g>
</svg>