<?xml version="1.0" encoding="UTF-8"?>
<svg id="Layer_1" xmlns="http://www.w3.org/2000/svg" version="1.1" viewBox="0 0 16 16">
  <!-- Generator: Adobe Illustrator 29.4.0, SVG Export Plug-In . SVG Version: 2.1.0 Build 152)  -->
  <defs>
    <style>
      .st0 {
        fill: #fff;
      }

      .st1 {
        fill: #00a79d;
      }
    </style>
  </defs>
  <g>
    <g id="_Radial_Repeat_">
      <path class="st1" d="M8.17,13.67v-3.78c0-.34.44-.47.62-.19l2.03,3.22,1.52,2.41-1.45.44h0l-2.57-1.82c-.09-.06-.14-.17-.14-.28h0Z"/>
    </g>
    <g id="_Radial_Repeat_-2">
      <path class="st1" d="M9.66,7.19l3.29-2.13,2.34-1.52c.19.41.35.86.48,1.35l-1.92,2.79c-.06.09-.16.15-.27.15h-3.73c-.34,0-.46-.45-.18-.63h0Z"/>
    </g>
  </g>
  <path class="st0" d="M3.06,5.06c.4-1.03,1.09-1.68,2.1-1.99L3.65.66c-1.32.56-2.31,1.51-2.94,2.87l2.36,1.54ZM12.35.66l.59,4.39,2.34-1.52c-.63-1.36-1.62-2.32-2.94-2.88l-1.52,2.41c1.02.31,1.71.96,2.11,1.98l-.6-4.39ZM3.64,15.33h0l1.52-2.41c-1-.32-1.69-.97-2.09-1.99l-2.35,1.52c.63,1.36,1.62,2.32,2.92,2.88ZM12.34,15.34c1.31-.56,2.3-1.52,2.93-2.88l-2.34-1.52c-.41,1.02-1.1,1.67-2.11,1.98l1.52,2.41h0Z"/>
  <path class="st1" d="M3.65.66c.45-.19.93-.33,1.46-.43l2.57,1.82c.09.07.14.17.14.28v3.79c0,.34-.44.47-.62.18l-2.03-3.23L3.65.66Z"/>
  <path class="st1" d="M8.18,6.12v-3.28s0-.51,0-.51c0-.11.05-.22.14-.28L10.9.23l1.45.43-1.52,2.41-2.04,3.23c-.18.29-.62.16-.62-.19h0Z"/>
  <path class="st1" d="M9.85,8.19h3.54s.19,0,.19,0c.11,0,.21.05.28.15l1.91,2.78c-.13.49-.29.94-.49,1.35l-2.34-1.52-3.26-2.12c-.28-.19-.15-.63.18-.63h0Z"/>
  <path class="st1" d="M3.64,15.33l1.52-2.41,2.03-3.22c.18-.29.62-.16.62.18v3.28s0,.51,0,.51c0,.11-.05.22-.14.28l-2.57,1.82h0l-1.45-.44h0Z"/>
  <path class="st1" d="M.23,4.87c.12-.48.28-.93.48-1.34l2.36,1.54,3.26,2.12c.28.19.15.63-.18.63h-3.52s-.21,0-.21,0c-.11,0-.21-.05-.28-.15L.23,4.87Z"/>
  <path class="st1" d="M.24,11.1H.24l1.91-2.77c.06-.09.16-.15.28-.15h3.72c.34,0,.46.45.18.63l-3.26,2.11-2.35,1.52c-.2-.41-.36-.86-.48-1.35Z"/>
</svg>