<?xml version="1.0" encoding="UTF-8"?>
<svg id="Layer_1" xmlns="http://www.w3.org/2000/svg" version="1.1" viewBox="0 0 1088.35 494.01">
  <!-- Generator: Adobe Illustrator 29.4.0, SVG Export Plug-In . SVG Version: 2.1.0 Build 152)  -->
  <defs>
    <style>
      .st0 {
        fill: none;
        stroke: #58a49d;
        stroke-linecap: square;
        stroke-linejoin: round;
        stroke-width: 4px;
      }
    </style>
  </defs>
  <path class="st0" d="M10.46,494.01l11.28-17.91c54.99-87.34,109.97-174.68,164.96-262.02,27.06-42.98,54.11-85.95,81.17-128.93,13.7-21.75,22.26-44.62,50.84-49.82,25.75-4.68,60.11,14.95,60.11,43.75v414.93"/>
  <path class="st0" d="M812.61,494.01c-3.76-5.97-7.52-11.94-11.28-17.91-54.99-87.34-109.97-174.68-164.96-262.02-27.06-42.98-54.11-85.95-81.17-128.93-13.7-21.75-22.26-44.62-50.84-49.82-25.75-4.68-60.11,14.95-60.11,43.75,0,.19,0,414.93,0,414.93"/>
  <path class="st0" d="M1077.88,494.01c-3.76-5.97-7.52-11.94-11.28-17.91-54.99-87.34-109.97-174.68-164.96-262.02-27.06-42.98-54.11-85.95-81.17-128.93-13.7-21.75-22.26-44.62-50.84-49.82-25.75-4.68-60.11,14.95-60.11,43.75,0,.19,0,414.93,0,414.93"/>
  <path class="st0" d="M689.98,494.01c3.76-5.97,7.52-11.94,11.28-17.91,54.99-87.34,109.97-174.68,164.96-262.02,27.06-42.98,54.11-85.95,81.17-128.93,13.7-21.75,22.26-44.62,50.84-49.82,25.75-4.68,60.11,14.95,60.11,43.75v414.93"/>
</svg>