<?xml version="1.0" encoding="UTF-8"?>
<svg id="Layer_1" data-name="Layer 1" xmlns="http://www.w3.org/2000/svg" viewBox="0 0 229.6 59.62">
  <defs>
    <style>
      .cls-1 {
        fill: #fff;
      }

      .cls-2 {
        fill: #00a79d;
      }
    </style>
  </defs>
  <g>
    <g>
      <g id="_Radial_Repeat_" data-name="&amp;lt;Radial Repeat&amp;gt;">
        <path class="cls-2" d="M30.48,51.55v-14.52c0-1.32,1.69-1.82,2.39-.71l7.77,12.37,5.82,9.26-5.58,1.67h0l-9.84-6.99c-.35-.24-.55-.65-.55-1.08Z"/>
      </g>
      <g id="_Radial_Repeat_-2" data-name="&amp;lt;Radial Repeat&amp;gt;">
        <path class="cls-2" d="M36.2,26.69l12.61-8.17,8.99-5.82c.74,1.58,1.35,3.3,1.83,5.16l-7.37,10.7c-.24.35-.63.56-1.05.56h-14.3c-1.29,0-1.78-1.72-.7-2.43Z"/>
      </g>
    </g>
    <path class="cls-1" d="M10.88,18.55c1.54-3.95,4.18-6.43,8.06-7.63L13.12,1.64C8.05,3.78,4.25,7.44,1.83,12.66l9.05,5.89ZM46.52,1.66,48.8,18.52l8.99-5.82c-2.42-5.23-6.22-8.9-11.27-11.04l-5.82,9.25c3.91,1.2,6.57,3.67,8.11,7.61ZM13.1,57.93,13.1,57.93l5.82-9.24c-3.85-1.22-6.48-3.72-8.02-7.65l-9.02,5.85c2.43,5.21,6.21,8.89,11.22,11.04ZM46.46,57.95c5.02-2.16,8.81-5.83,11.24-11.03l-8.97-5.83c-1.57,3.92-4.21,6.39-8.08,7.6l5.82,9.26ZM46.46,57.95"/>
    <path class="cls-2" d="M13.12,1.64c1.72-.73,3.58-1.28,5.59-1.64l9.86,7c.35.25.55.65.55,1.08v14.53c0,1.31-1.69,1.81-2.39.7l-7.78-12.39L13.12,1.64Z"/>
    <path class="cls-2" d="M30.49,22.6l.02-12.59v-1.94c0-.43.2-.83.55-1.07L40.94,0l5.58,1.65-5.82,9.25-7.81,12.4c-.7,1.11-2.39.6-2.39-.71Z"/>
    <path class="cls-2" d="M36.9,30.52l13.58.02h.71c.43,0,.82.21,1.06.56l7.31,10.65c-.5,1.87-1.11,3.59-1.87,5.18l-8.97-5.83-12.52-8.14c-1.09-.71-.59-2.42.7-2.42Z"/>
    <path class="cls-2" d="M13.1,57.93l5.82-9.24,7.79-12.36c.7-1.11,2.39-.6,2.39.7l-.02,12.59v1.94c0,.43-.2.83-.55,1.08l-9.86,6.98h0l-5.57-1.68Z"/>
    <path class="cls-2" d="M0,17.82c.47-1.86,1.08-3.58,1.83-5.15l9.05,5.89,12.52,8.14c1.09.71.59,2.42-.7,2.42l-13.49-.02h-.81c-.43,0-.82-.21-1.06-.56L0,17.82Z"/>
    <path class="cls-2" d="M.03,41.7H.03s7.31-10.64,7.31-10.64c.24-.35.63-.57,1.06-.56h14.29c1.29,0,1.78,1.72.7,2.43l-12.49,8.1-9.02,5.85c-.75-1.58-1.37-3.31-1.85-5.18Z"/>
  </g>
  <g>
    <path class="cls-1" d="M77.48,14.41l9.35,24.78c.27.73.78,1.05,1.51,1.05s1.19-.32,1.51-1.05l9.81-24.78h5.98l-10.86,27.38c-1.14,2.87-3.24,3.97-6.43,3.97-3.01,0-5.34-.96-6.48-3.97l-10.31-27.38h5.93Z"/>
    <path class="cls-1" d="M121.06,14.41c8.94,0,13.92,5.11,13.92,15.47s-4.93,15.33-13.92,15.33h-4.2c-8.99,0-13.92-5.02-13.92-15.33s4.97-15.47,13.92-15.47h4.2ZM116.86,19.79c-5.93,0-8.53,3.01-8.53,10.08s2.56,9.95,8.53,9.95h4.2c5.93,0,8.49-2.92,8.49-9.99s-2.55-10.04-8.49-10.04h-4.2Z"/>
    <path class="cls-1" d="M142.32,45.21h-5.38v-24.64c0-4.02,2.28-6.71,7.07-6.71,4.29,0,6.21,2.19,7.48,5.7l8.99,19.67c.37.73.96,1.28,1.96,1.28,1.14,0,1.83-.68,1.83-1.73V14.41h5.43v24.59c0,4.06-2.33,6.75-7.07,6.75-4.29,0-6.25-2.19-7.53-5.7l-8.99-19.67c-.41-.91-.96-1.32-1.92-1.32-1.23,0-1.87.68-1.87,1.78v24.37Z"/>
    <path class="cls-1" d="M189.72,14.41c8.94,0,13.92,5.11,13.92,15.47s-4.93,15.33-13.92,15.33h-4.2c-8.99,0-13.92-5.02-13.92-15.33s4.97-15.47,13.92-15.47h4.2ZM185.53,19.79c-5.93,0-8.53,3.01-8.53,10.08s2.56,9.95,8.53,9.95h4.2c5.93,0,8.49-2.92,8.49-9.99s-2.56-10.04-8.49-10.04h-4.2Z"/>
    <path class="cls-1" d="M205.88,14.41l8.62,13.19,8.72-13.19h6.39l-12.41,17.52v13.28h-5.43v-13.28l-12.41-17.52h6.53Z"/>
  </g>
</svg>