<?xml version="1.0" encoding="UTF-8"?>
<svg id="Layer_1" xmlns="http://www.w3.org/2000/svg" version="1.1" viewBox="0 0 1055.4 247.7">
  <!-- Generator: Adobe Illustrator 29.4.0, SVG Export Plug-In . SVG Version: 2.1.0 Build 152)  -->
  <defs>
    <style>
      .st0 {
        fill: #58a49d;
      }
    </style>
  </defs>
  <path class="st0" d="M23.6,248.9l-3.2-2.1c13.3-20.8,27.1-41.8,40.4-62.1,20.8-31.6,42.3-64.4,62.5-97.1,3.1-5,6.1-9.9,8.9-14.6,1.7-2.8,3.4-5.7,5.1-8.8,8-13.8,17.1-29.5,29.5-39.7,14.2-11.7,34.7-16.4,53.4-12.2,16.1,3.5,31.1,17.7,40.1,37.8,8,17.9,6.9,39.2,5.9,58-.1,2.5-.3,5.1-.4,7.5-.8,19.2-1,38.6-1.1,56.7,0,25.1,0,50.5.3,75.5h-3.8c-.3-25-.4-50.5-.3-75.5,0-18.2.3-37.6,1.1-56.9.1-2.5.2-5,.4-7.6,1-19.3,2.1-39.2-5.6-56.2-8.5-19-22.5-32.3-37.5-35.6-17.6-3.9-36.8.5-50.1,11.5-11.9,9.8-20.4,24.5-28.6,38.7-1.8,3.1-3.5,6-5.2,8.8-2.8,4.7-5.9,9.7-8.9,14.7-20.2,32.8-41.7,65.6-62.6,97.2-13.3,20.3-27.1,41.2-40.4,62Z"/>
  <path class="st0" d="M565.7,248.9c-13.3-20.8-27.1-41.8-40.4-62-20.8-31.7-42.3-64.4-62.5-97.2-3.1-5-6.1-10-8.9-14.7-1.7-2.9-3.4-5.8-5.2-8.8-8.2-14.2-16.7-28.9-28.6-38.7-13.3-10.9-32.5-15.3-50.1-11.5-14.9,3.3-28.9,16.6-37.5,35.6-7.6,17-6.6,36.9-5.6,56.2.1,2.6.3,5.1.4,7.6.9,19.3,1,38.7,1.1,56.9,0,25.1,0,50.5-.3,75.6h-3.8c.3-25.1.4-50.5.3-75.6,0-18.1-.3-37.5-1.1-56.7-.1-2.5-.2-5-.4-7.5-1-18.8-2.1-40.1,5.9-58,9-20.1,24-34.3,40.1-37.8,18.7-4.1,39.2.6,53.4,12.2,12.4,10.2,21.5,25.9,29.5,39.7,1.8,3.1,3.4,5.9,5.1,8.8,2.8,4.7,5.8,9.6,8.9,14.6,20.2,32.8,41.7,65.5,62.5,97.1,13.3,20.3,27.1,41.3,40.4,62.1l-3.2,2.1Z"/>
  <path class="st0" d="M867.3,248.9c-13.3-20.8-27.1-41.7-40.4-62-20.8-31.7-42.3-64.4-62.6-97.3-3.1-5-6.1-9.9-8.9-14.7-1.7-2.9-3.4-5.8-5.2-8.8-8.2-14.2-16.7-28.9-28.6-38.7-13.3-10.9-32.5-15.3-50.1-11.5-14.9,3.3-28.9,16.6-37.5,35.6-7.6,17-6.6,36.9-5.6,56.2.1,2.6.3,5.1.4,7.6.9,19.2,1,38.7,1.1,56.9,0,25.1,0,50.5-.3,75.6h-3.8c.3-25.1.4-50.5.3-75.6,0-18.1-.3-37.6-1.1-56.7-.1-2.5-.2-5-.4-7.5-1-18.8-2.1-40.1,5.9-58,9-20.1,24-34.3,40.1-37.8,18.7-4.1,39.2.6,53.4,12.2,12.4,10.2,21.5,25.9,29.5,39.7,1.8,3.1,3.4,5.9,5.1,8.8,2.9,4.8,5.9,9.7,8.9,14.6,20.2,32.8,41.7,65.5,62.5,97.2,13.3,20.3,27.1,41.3,40.4,62.1l-3.2,2.1Z"/>
  <path class="st0" d="M791.6,248.9l-3.2-2.1c13.3-20.8,27.1-41.8,40.4-62.1,20.8-31.6,42.3-64.4,62.5-97.1,3.1-5,6.1-9.9,8.9-14.6,1.7-2.8,3.4-5.7,5.1-8.8,8-13.8,17.1-29.5,29.5-39.7,14.2-11.7,34.7-16.4,53.4-12.2,16.1,3.5,31.1,17.7,40.1,37.8,8,17.9,6.9,39.2,5.9,58-.1,2.5-.3,5.1-.4,7.5-.8,19.2-1,38.6-1.1,56.7,0,25.1,0,50.5.3,75.5h-3.8c-.3-25-.4-50.5-.3-75.5,0-18.2.3-37.6,1.1-56.9.1-2.5.2-5,.4-7.6,1-19.3,2.1-39.2-5.6-56.2-8.5-19-22.5-32.3-37.5-35.6-17.6-3.9-36.8.5-50.1,11.5-11.9,9.8-20.4,24.5-28.6,38.7-1.8,3.1-3.5,6-5.2,8.8-2.8,4.7-5.8,9.6-8.9,14.7-20.2,32.8-41.7,65.6-62.5,97.2-13.3,20.3-27.1,41.3-40.4,62Z"/>
</svg>